<svg width="16" height="16" viewBox="0 0 16 16" fill="none" xmlns="http://www.w3.org/2000/svg">
<path fill-rule="evenodd" clip-rule="evenodd" d="M14.3531 4.64599C14.3997 4.69244 14.4366 4.74761 14.4618 4.80836C14.487 4.8691 14.5 4.93423 14.5 4.99999C14.5 5.06576 14.487 5.13088 14.4618 5.19163C14.4366 5.25237 14.3997 5.30755 14.3531 5.35399L8.35311 11.354C8.30666 11.4006 8.25148 11.4375 8.19074 11.4627C8.12999 11.4879 8.06487 11.5009 7.99911 11.5009C7.93334 11.5009 7.86822 11.4879 7.80747 11.4627C7.74673 11.4375 7.69155 11.4006 7.64511 11.354L1.64511 5.35399C1.55122 5.26011 1.49848 5.13277 1.49848 4.99999C1.49848 4.86722 1.55122 4.73988 1.64511 4.64599C1.73899 4.55211 1.86633 4.49936 1.99911 4.49936C2.13188 4.49936 2.25922 4.55211 2.35311 4.64599L7.99911 10.293L13.6451 4.64599C13.6916 4.59943 13.7467 4.56249 13.8075 4.53728C13.8682 4.51207 13.9333 4.4991 13.9991 4.4991C14.0649 4.4991 14.13 4.51207 14.1907 4.53728C14.2515 4.56249 14.3067 4.59943 14.3531 4.64599Z" fill="#212529"/>
</svg>
