<svg width="16" height="16" viewBox="0 0 16 16" fill="none" xmlns="http://www.w3.org/2000/svg">
<path fill-rule="evenodd" clip-rule="evenodd" d="M1.64689 11.354C1.60033 11.3076 1.56339 11.2524 1.53818 11.1916C1.51297 11.1309 1.5 11.0658 1.5 11C1.5 10.9342 1.51297 10.8691 1.53818 10.8084C1.56339 10.7476 1.60033 10.6925 1.64689 10.646L7.64689 4.64601C7.69334 4.59944 7.74852 4.5625 7.80926 4.53729C7.87001 4.51209 7.93513 4.49911 8.00089 4.49911C8.06666 4.49911 8.13178 4.51209 8.19253 4.53729C8.25327 4.5625 8.30845 4.59944 8.35489 4.64601L14.3549 10.646C14.4488 10.7399 14.5015 10.8672 14.5015 11C14.5015 11.1328 14.4488 11.2601 14.3549 11.354C14.261 11.4479 14.1337 11.5006 14.0009 11.5006C13.8681 11.5006 13.7408 11.4479 13.6469 11.354L8.00089 5.70701L2.35489 11.354C2.30845 11.4006 2.25327 11.4375 2.19253 11.4627C2.13178 11.4879 2.06666 11.5009 2.00089 11.5009C1.93513 11.5009 1.87001 11.4879 1.80926 11.4627C1.74852 11.4375 1.69334 11.4006 1.64689 11.354Z" fill="#212529"/>
</svg>
