<svg width="40" height="40" viewBox="0 0 40 40" fill="none" xmlns="http://www.w3.org/2000/svg">
<rect width="40" height="40" rx="8" fill="#E9FAF1"/>
<path d="M21.819 14.3188C22.0831 14.0673 22.4346 13.9283 22.7993 13.931C23.1639 13.9338 23.5133 14.0781 23.7736 14.3335C24.0339 14.589 24.1847 14.9355 24.1944 15.3001C24.204 15.6646 24.0717 16.0187 23.8252 16.2875L16.344 25.6438C16.2153 25.7823 16.0601 25.8935 15.8875 25.9707C15.7149 26.0479 15.5285 26.0895 15.3395 26.093C15.1504 26.0965 14.9626 26.0618 14.7873 25.9911C14.6119 25.9203 14.4527 25.815 14.319 25.6813L9.35773 20.72C9.21957 20.5913 9.10875 20.436 9.03189 20.2635C8.95503 20.091 8.91371 19.9048 8.91038 19.716C8.90704 19.5272 8.94178 19.3396 9.0125 19.1645C9.08323 18.9894 9.1885 18.8303 9.32204 18.6968C9.45557 18.5633 9.61464 18.458 9.78974 18.3873C9.96484 18.3165 10.1524 18.2818 10.3412 18.2851C10.53 18.2885 10.7162 18.3298 10.8887 18.4067C11.0612 18.4835 11.2165 18.5943 11.3452 18.7325L15.2715 22.6569L21.7815 14.36C21.7932 14.3455 21.8057 14.3318 21.819 14.3188ZM20.094 23.9563L21.819 25.6813C21.9526 25.8147 22.1118 25.9198 22.287 25.9904C22.4621 26.0609 22.6497 26.0955 22.8385 26.092C23.0273 26.0885 23.2135 26.047 23.3859 25.97C23.5583 25.893 23.7135 25.782 23.8421 25.6438L31.3271 16.2875C31.4616 16.1548 31.5679 15.9963 31.6397 15.8215C31.7116 15.6468 31.7475 15.4593 31.7453 15.2704C31.7431 15.0815 31.7028 14.8949 31.6269 14.7219C31.551 14.5488 31.441 14.3929 31.3035 14.2633C31.166 14.1337 31.0038 14.0332 30.8265 13.9677C30.6493 13.9022 30.4607 13.8731 30.272 13.8821C30.0832 13.8912 29.8982 13.9381 29.7281 14.0202C29.5579 14.1023 29.406 14.2179 29.2815 14.36L22.7696 22.6569L21.8602 21.7456L20.0921 23.9563H20.094Z" fill="#3BAF77"/>
</svg>
