<svg width="441" height="216" viewBox="0 0 441 216" fill="none" xmlns="http://www.w3.org/2000/svg">
<rect width="441" height="216" fill="white"/>
<g clip-path="url(#clip0_215_885)">
<path d="M74 63C74 65.6522 72.9464 68.1957 71.0711 70.0711C69.1957 71.9464 66.6522 73 64 73C61.3478 73 58.8043 71.9464 56.9289 70.0711C55.0536 68.1957 54 65.6522 54 63C54 60.3478 55.0536 57.8043 56.9289 55.9289C58.8043 54.0536 61.3478 53 64 53C66.6522 53 69.1957 54.0536 71.0711 55.9289C72.9464 57.8043 74 60.3478 74 63ZM69.0375 59.2125C68.9482 59.1235 68.8419 59.0535 68.7249 59.0065C68.6079 58.9596 68.4827 58.9367 68.3567 58.9393C68.2306 58.9418 68.1064 58.9698 67.9914 59.0215C67.8765 59.0731 67.7731 59.1475 67.6875 59.24L63.3463 64.7712L60.73 62.1537C60.5523 61.9881 60.3172 61.898 60.0743 61.9023C59.8315 61.9066 59.5997 62.005 59.428 62.1767C59.2562 62.3485 59.1578 62.5802 59.1535 62.8231C59.1492 63.066 59.2394 63.301 59.405 63.4788L62.7125 66.7875C62.8016 66.8764 62.9077 66.9465 63.0245 66.9936C63.1413 67.0406 63.2663 67.0637 63.3922 67.0613C63.5181 67.059 63.6422 67.0313 63.7571 66.98C63.8721 66.9286 63.9755 66.8547 64.0612 66.7625L69.0513 60.525C69.2214 60.3481 69.3153 60.1116 69.313 59.8662C69.3107 59.6208 69.2122 59.3861 69.0387 59.2125H69.0375Z" fill="#3BAF77"/>
</g>
<g clip-path="url(#clip1_215_885)">
<path d="M134 53C128.478 53 124 57.4777 124 63C124 68.5223 128.478 73 134 73C139.522 73 144 68.5223 144 63C144 57.4777 139.522 53 134 53ZM133.286 58.1786C133.286 58.0804 133.366 58 133.464 58H134.536C134.634 58 134.714 58.0804 134.714 58.1786V64.25C134.714 64.3482 134.634 64.4286 134.536 64.4286H133.464C133.366 64.4286 133.286 64.3482 133.286 64.25V58.1786ZM134 68C133.72 67.9943 133.453 67.8789 133.256 67.6786C133.06 67.4783 132.95 67.209 132.95 66.9286C132.95 66.6481 133.06 66.3789 133.256 66.1786C133.453 65.9783 133.72 65.8629 134 65.8571C134.28 65.8629 134.547 65.9783 134.744 66.1786C134.94 66.3789 135.05 66.6481 135.05 66.9286C135.05 67.209 134.94 67.4783 134.744 67.6786C134.547 67.8789 134.28 67.9943 134 68Z" fill="#DC3545"/>
</g>
<path d="M101.819 57.3188C102.083 57.0674 102.434 56.9284 102.799 56.9311C103.164 56.9339 103.513 57.0782 103.773 57.3336C104.034 57.589 104.185 57.9356 104.194 58.3002C104.204 58.6647 104.071 59.0188 103.825 59.2876L96.3437 68.6438C96.2151 68.7824 96.0598 68.8936 95.8872 68.9708C95.7146 69.0479 95.5282 69.0895 95.3392 69.093C95.1502 69.0965 94.9624 69.0619 94.787 68.9911C94.6117 68.9204 94.4524 68.815 94.3187 68.6813L89.3575 63.7201C89.2193 63.5913 89.1085 63.4361 89.0317 63.2636C88.9548 63.0911 88.9135 62.9049 88.9101 62.7161C88.9068 62.5272 88.9415 62.3397 89.0123 62.1646C89.083 61.9895 89.1883 61.8304 89.3218 61.6969C89.4553 61.5633 89.6144 61.4581 89.7895 61.3874C89.9646 61.3166 90.1522 61.2819 90.341 61.2852C90.5298 61.2886 90.716 61.3299 90.8885 61.4067C91.061 61.4836 91.2162 61.5944 91.345 61.7326L95.2712 65.657L101.781 57.3601C101.793 57.3456 101.805 57.3318 101.819 57.3188ZM100.094 66.9563L101.819 68.6813C101.952 68.8147 102.112 68.9199 102.287 68.9904C102.462 69.061 102.649 69.0956 102.838 69.0921C103.027 69.0886 103.213 69.0471 103.386 68.9701C103.558 68.8931 103.713 68.7821 103.842 68.6438L111.327 59.2876C111.461 59.1548 111.568 58.9964 111.639 58.8216C111.711 58.6468 111.747 58.4594 111.745 58.2705C111.743 58.0815 111.703 57.895 111.627 57.722C111.551 57.5489 111.441 57.393 111.303 57.2634C111.166 57.1338 111.004 57.0333 110.826 56.9678C110.649 56.9023 110.46 56.8732 110.272 56.8822C110.083 56.8912 109.898 56.9382 109.728 57.0203C109.558 57.1024 109.406 57.218 109.281 57.3601L102.769 65.657L101.86 64.7457L100.092 66.9563H100.094Z" fill="#3BAF77"/>
<g clip-path="url(#clip2_215_885)">
<path fill-rule="evenodd" clip-rule="evenodd" d="M55.5 109C55.5 111.785 56.6062 114.455 58.5754 116.425C60.5445 118.394 63.2152 119.5 66 119.5C68.7848 119.5 71.4555 118.394 73.4246 116.425C75.3938 114.455 76.5 111.785 76.5 109C76.5 106.215 75.3938 103.545 73.4246 101.575C71.4555 99.6062 68.7848 98.5 66 98.5C63.2152 98.5 60.5445 99.6062 58.5754 101.575C56.6062 103.545 55.5 106.215 55.5 109ZM78 109C78 112.183 76.7357 115.235 74.4853 117.485C72.2348 119.736 69.1826 121 66 121C62.8174 121 59.7652 119.736 57.5147 117.485C55.2643 115.235 54 112.183 54 109C54 105.817 55.2643 102.765 57.5147 100.515C59.7652 98.2643 62.8174 97 66 97C69.1826 97 72.2348 98.2643 74.4853 100.515C76.7357 102.765 78 105.817 78 109ZM60.75 108.25C60.5511 108.25 60.3603 108.329 60.2197 108.47C60.079 108.61 60 108.801 60 109C60 109.199 60.079 109.39 60.2197 109.53C60.3603 109.671 60.5511 109.75 60.75 109.75H69.4395L66.219 112.969C66.1493 113.039 66.094 113.122 66.0562 113.213C66.0185 113.304 65.9991 113.401 65.9991 113.5C65.9991 113.599 66.0185 113.696 66.0562 113.787C66.094 113.878 66.1493 113.961 66.219 114.031C66.2887 114.101 66.3715 114.156 66.4626 114.194C66.5537 114.232 66.6514 114.251 66.75 114.251C66.8486 114.251 66.9463 114.232 67.0374 114.194C67.1285 114.156 67.2113 114.101 67.281 114.031L71.781 109.531C71.8508 109.461 71.9063 109.379 71.9441 109.287C71.9819 109.196 72.0013 109.099 72.0013 109C72.0013 108.901 71.9819 108.804 71.9441 108.713C71.9063 108.621 71.8508 108.539 71.781 108.469L67.281 103.969C67.2113 103.899 67.1285 103.844 67.0374 103.806C66.9463 103.768 66.8486 103.749 66.75 103.749C66.6514 103.749 66.5537 103.768 66.4626 103.806C66.3715 103.844 66.2887 103.899 66.219 103.969C66.1493 104.039 66.094 104.122 66.0562 104.213C66.0185 104.304 65.9991 104.401 65.9991 104.5C65.9991 104.599 66.0185 104.696 66.0562 104.787C66.094 104.878 66.1493 104.961 66.219 105.031L69.4395 108.25H60.75Z" fill="#212529"/>
</g>
<defs>
<clipPath id="clip0_215_885">
<rect width="20" height="20" fill="white" transform="translate(54 53)"/>
</clipPath>
<clipPath id="clip1_215_885">
<rect width="20" height="20" fill="white" transform="translate(124 53)"/>
</clipPath>
<clipPath id="clip2_215_885">
<rect width="24" height="24" fill="white" transform="translate(54 97)"/>
</clipPath>
</defs>
</svg>
