<svg width="14" height="8" viewBox="0 0 14 8" fill="none" xmlns="http://www.w3.org/2000/svg">
<path fill-rule="evenodd" clip-rule="evenodd" d="M0.646894 7.35401C0.600331 7.30756 0.563388 7.25239 0.538181 7.19164C0.512975 7.1309 0.5 7.06577 0.5 7.00001C0.5 6.93424 0.512975 6.86912 0.538181 6.80837C0.563388 6.74763 0.600331 6.69245 0.646894 6.64601L6.64689 0.646007C6.69334 0.599443 6.74852 0.562501 6.80926 0.537294C6.87001 0.512088 6.93513 0.499113 7.00089 0.499113C7.06666 0.499113 7.13178 0.512088 7.19253 0.537294C7.25327 0.562501 7.30845 0.599443 7.35489 0.646007L13.3549 6.64601C13.4488 6.73989 13.5015 6.86723 13.5015 7.00001C13.5015 7.13278 13.4488 7.26012 13.3549 7.35401C13.261 7.44789 13.1337 7.50064 13.0009 7.50064C12.8681 7.50064 12.7408 7.44789 12.6469 7.35401L7.00089 1.70701L1.35489 7.35401C1.30845 7.40057 1.25327 7.43751 1.19253 7.46272C1.13178 7.48793 1.06666 7.5009 1.00089 7.5009C0.935127 7.5009 0.870005 7.48793 0.80926 7.46272C0.748515 7.43751 0.69334 7.40057 0.646894 7.35401Z" fill="#212529"/>
</svg>
